<?xml version="1.0" standalone="no"?>
<!DOCTYPE svg PUBLIC "-//W3C//DTD SVG 20010904//EN"
 "http://www.w3.org/TR/2001/REC-SVG-20010904/DTD/svg10.dtd">
<svg version="1.0" xmlns="http://www.w3.org/2000/svg"
 width="512.000000pt" height="512.000000pt" viewBox="0 0 512.000000 512.000000"
 preserveAspectRatio="xMidYMid meet">
<metadata>
Created by potrace 1.14, written by Peter Selinger 2001-2017
</metadata>
<g transform="translate(0.000000,512.000000) scale(0.100000,-0.100000)"
fill="#000000" stroke="none">
<path d="M3655 4864 c-159 -26 -282 -66 -441 -144 -438 -216 -824 -634 -1034
-1120 l-47 -109 -79 60 c-89 67 -291 172 -374 195 -168 47 -308 59 -446 39
-371 -56 -682 -329 -854 -749 -34 -83 -83 -240 -96 -310 -2 -11 -6 -31 -8 -43
-3 -11 -8 -43 -12 -70 -3 -26 -9 -57 -11 -68 -9 -40 -11 -392 -2 -475 17 -176
74 -436 126 -575 240 -648 692 -1091 1193 -1168 321 -50 603 46 845 288 226
226 363 529 419 925 11 76 14 85 32 80 10 -2 87 -4 169 -4 120 -1 170 4 254
22 206 46 392 127 586 257 354 236 642 591 833 1025 42 96 107 310 125 410 33
182 39 239 38 385 -2 327 -87 591 -262 811 -112 141 -240 231 -419 296 -30 11
-66 22 -80 24 -14 3 -43 10 -65 16 -60 16 -298 17 -390 2z"/>
</g>
</svg>
